PathFileType	4	(X/Y/Z)	C:\Users\xlb\Desktop\20210112\20210112\bx_n_10_902.trc
DataRate	CameraRate	NumFrames	NumMarkers	Units	OrigDataRate	OrigDataStartFrame	OrigNumFrames
50.00	50.00	       8	43	mm	50.00	424	       484
Frame#	Time	Top.Head			R.Acromium			L.Acromium			Sternum			R.ASIS			L.ASIS			V.Sacral			R.Thigh.Upper			R.Thigh.Front			R.Thigh.Rear			R.Knee.Lat			R.Knee.Med			R.Shank.Upper			R.Shank.Front			R.Shank.Rear			R.Ankle.Lat			R.Midfoot.Lat			R.Toe.Lat			R.Toe.Tip			R.Toe.Med			R.Ankle.Med			R.Midfoot.Sup			R.Heel			L.Thigh.Upper			L.Thigh.Front			L.Thigh.Rear			L.Knee.Lat			L.Knee.Med			L.Shank.Upper			L.Shank.Front			L.Shank.Rear			L.Ankle.Lat			L.Midfoot.Lat			L.Toe.Lat			L.Toe.Tip			L.Toe.Med			L.Ankle.Med			L.Midfoot.Sup			L.Heel			origin1 front left			origin2 front right			origin 3 back right			origin 4 back leftt			
		X1	Y1	Z1	X2	Y2	Z2	X3	Y3	Z3	X4	Y4	Z4	X5	Y5	Z5	X6	Y6	Z6	X7	Y7	Z7	X8	Y8	Z8	X9	Y9	Z9	X10	Y10	Z10	X11	Y11	Z11	X12	Y12	Z12	X13	Y13	Z13	X14	Y14	Z14	X15	Y15	Z15	X16	Y16	Z16	X17	Y17	Z17	X18	Y18	Z18	X19	Y19	Z19	X20	Y20	Z20	X21	Y21	Z21	X22	Y22	Z22	X23	Y23	Z23	X24	Y24	Z24	X25	Y25	Z25	X26	Y26	Z26	X27	Y27	Z27	X28	Y28	Z28	X29	Y29	Z29	X30	Y30	Z30	X31	Y31	Z31	X32	Y32	Z32	X33	Y33	Z33	X34	Y34	Z34	X35	Y35	Z35	X36	Y36	Z36	X37	Y37	Z37	X38	Y38	Z38	X39	Y39	Z39	X40	Y40	Z40	X41	Y41	Z41	X42	Y42	Z42	X43	Y43	Z43	

424	8.460	-750.24884	83.90452	1839.34766	-682.84094	-90.75203	1537.54651	-681.31787	267.23431	1546.28760	-585.07568	86.42274	1353.64734	-568.90961	-19.16908	1054.40405	-587.53186	229.68228	1067.81335	-777.44891	76.46464	1051.42358	-634.75037	-84.91214	871.64771	-567.25061	-12.04873	802.41058	-661.85577	-71.44878	758.35919	-692.17786	-45.40696	618.72620	-681.42206	63.96992	576.37659	-702.92828	-41.91164	568.53107	-653.35291	8.43013	518.96490	-749.53015	-52.39098	489.22952	-756.98615	-20.37253	206.30994	-649.10730	-68.79027	160.61378	-606.98169	-76.57349	156.71983	-548.83093	-30.49136	163.58923	-596.02338	25.02686	168.84293	-714.30798	68.70987	219.00967	-669.73016	53.04404	161.25795	-790.46216	39.69998	173.34691	-672.46674	272.24094	876.33936	-569.23132	206.71402	814.59827	-683.02179	260.37964	746.48212	-714.65350	243.20134	645.03876	-678.89325	138.64087	575.49097	-718.34778	241.16595	578.50696	-665.73138	201.06403	534.47650	-759.88550	252.05266	505.74771	-766.03784	227.35686	206.13380	-658.27368	297.79724	158.91397	-622.39362	306.28406	158.72859	-554.24347	256.42001	164.31949	-590.13715	218.79196	173.27989	-710.45483	152.82982	216.63672	-673.42914	172.75940	158.23422	-794.45288	178.65858	183.73724	-527.96075	304.28635	146.64053	-517.52393	-73.06506	143.19550	-875.91754	-78.70622	141.32352	-882.47980	296.10101	144.65799	
425	8.480	-751.65295	83.91646	1838.99487	-683.60529	-90.47820	1537.34778	-682.26086	267.50537	1546.11401	-585.08716	86.82762	1353.59961	-567.98920	-18.94433	1054.30615	-586.70453	230.04994	1067.71130	-776.47260	76.65098	1051.04883	-633.77887	-84.78181	871.48999	-566.44141	-11.84331	802.27551	-661.03070	-71.35560	758.28979	-691.57709	-45.31245	618.74493	-680.98584	64.21009	576.36853	-702.43268	-41.81282	568.51471	-652.76245	8.70623	518.86359	-749.03784	-52.23122	489.28241	-756.91577	-20.30062	206.39909	-649.11096	-68.79446	160.62585	-606.95227	-76.47633	156.79509	-548.85608	-30.45788	163.56705	-596.01654	25.01220	168.82104	-714.30597	68.72194	219.01247	-669.73773	53.05300	161.25938	-790.61292	39.75120	173.40726	-671.67908	272.44974	876.21783	-568.44781	206.89987	814.48633	-682.28821	260.51923	746.41907	-714.07379	243.14549	644.97351	-678.35730	138.57233	575.35907	-717.84131	241.22249	578.51862	-665.27832	201.16614	534.36682	-759.40918	252.01640	505.72879	-766.00525	227.33357	206.18597	-658.31970	297.80957	158.90689	-622.40918	306.26843	158.72523	-554.23273	256.41409	164.28654	-590.12683	218.80586	173.25925	-710.44128	152.81435	216.63589	-673.45380	172.76320	158.08783	-794.45294	178.63860	183.72093	-527.96185	304.32010	146.67531	-517.54462	-73.07405	143.19775	-875.90601	-78.66998	141.35014	-882.45587	296.10114	144.67825	
426	8.500	-752.87323	83.97147	1838.66248	-684.48987	-90.26659	1537.23425	-683.09106	267.76373	1545.93738	-585.23938	87.24051	1353.48206	-567.12964	-18.74142	1054.27478	-585.98425	230.42513	1067.59949	-775.57001	76.80912	1050.68811	-632.88745	-84.64903	871.33191	-565.65094	-11.60122	802.18005	-660.22699	-71.27173	758.16522	-690.95892	-45.17044	618.68579	-680.43286	64.47020	576.27399	-701.93207	-41.73118	568.55255	-652.20435	8.96896	518.80609	-748.59918	-52.00551	489.33170	-756.85504	-20.23969	206.46198	-649.11530	-68.79207	160.62433	-606.96790	-76.41596	156.82037	-548.89563	-30.40852	163.54233	-595.97137	25.00499	168.84871	-714.30603	68.72463	219.01515	-669.73126	53.07094	161.24683	-790.64233	39.77022	173.43327	-670.97729	272.62787	876.06036	-567.74500	207.08998	814.34143	-681.67615	260.67874	746.30951	-713.48450	243.15182	644.93237	-677.82678	138.59357	575.17578	-717.40576	241.29286	578.57947	-664.89539	201.26556	534.29120	-759.01703	252.02032	505.68988	-765.93530	227.32452	206.18233	-658.38165	297.80173	158.88257	-622.41620	306.26721	158.72099	-554.22668	256.41599	164.26486	-590.12067	218.81374	173.24774	-710.42731	152.79018	216.61650	-673.49652	172.82092	157.92702	-794.45496	178.63086	183.69389	-527.94434	304.30737	146.69179	-517.56104	-73.08913	143.19292	-875.90295	-78.65506	141.37436	-882.43353	296.12363	144.71800	
427	8.520	-753.89252	84.06467	1838.36572	-685.46350	-90.14149	1537.13367	-683.81421	267.98105	1545.72839	-585.53143	87.63325	1353.33313	-566.33594	-18.59277	1054.28796	-585.32520	230.76651	1067.44678	-774.74976	76.94565	1050.40723	-632.08826	-84.56148	871.21869	-564.93622	-11.35093	802.11438	-659.47174	-71.19918	758.01959	-690.36469	-44.95481	618.52496	-679.78491	64.67195	576.10437	-701.43561	-41.65736	568.62653	-651.72003	9.15135	518.76575	-748.25458	-51.76935	489.36853	-756.80945	-20.17883	206.48334	-649.11212	-68.76702	160.60376	-607.01276	-76.40063	156.79300	-548.92560	-30.37495	163.53191	-595.94391	25.02393	168.87648	-714.30316	68.72701	219.01796	-669.71814	53.09251	161.23288	-790.61792	39.76255	173.49883	-670.35950	272.73755	875.84991	-567.12952	207.21008	814.13116	-681.15186	260.81650	746.16516	-712.93011	243.22878	644.91565	-677.31317	138.67937	575.02740	-717.06989	241.35600	578.63049	-664.58173	201.32806	534.25549	-758.75165	252.07666	505.65323	-765.85083	227.31783	206.12071	-658.42822	297.78357	158.85518	-622.41309	306.27847	158.72302	-554.22260	256.43115	164.26239	-590.09973	218.82404	173.23770	-710.42273	152.75787	216.57419	-673.52332	172.85600	157.81190	-794.45648	178.62325	183.67747	-527.92053	304.23819	146.67130	-517.55804	-73.10059	143.18614	-875.89917	-78.66396	141.36827	-882.42786	296.15271	144.74837	
428	8.540	-754.73206	84.20045	1838.11279	-686.33551	-90.03531	1536.98206	-684.44049	268.17987	1545.49292	-585.86072	87.99370	1353.19775	-565.63190	-18.49591	1054.31860	-584.68793	231.03760	1067.26379	-774.02411	77.09253	1050.21497	-631.38763	-84.53061	871.16907	-564.34064	-11.15158	802.05945	-658.80750	-71.14759	757.90552	-689.82208	-44.70746	618.33795	-679.16876	64.79237	575.91064	-700.96832	-41.56878	568.68402	-651.29456	9.25424	518.71155	-747.98425	-51.58044	489.37796	-756.79193	-20.10689	206.48744	-649.10046	-68.72660	160.57828	-607.06494	-76.42699	156.73291	-548.92981	-30.37958	163.54739	-595.98279	25.06853	168.84659	-714.29291	68.73756	219.02325	-669.70929	53.10792	161.23610	-790.59668	39.75466	173.59952	-669.78198	272.81171	875.64447	-566.66064	207.22412	813.85284	-680.68433	260.91135	746.03619	-712.47729	243.31973	644.87170	-676.88391	138.76987	574.96173	-716.83246	241.39305	578.63379	-664.29236	201.34401	534.24725	-758.58374	252.17015	505.63885	-765.78821	227.29892	206.05338	-658.45135	297.77005	158.83334	-622.40375	306.29883	158.73036	-554.22113	256.45670	164.27606	-590.06171	218.84729	173.22154	-710.43030	152.72400	216.52313	-673.51306	172.81471	157.79330	-794.45752	178.60521	183.68735	-527.90979	304.16544	146.63652	-517.53870	-73.09615	143.18373	-875.89703	-78.68839	141.34027	-882.44177	296.18127	144.75815	
429	8.560	-755.43884	84.37773	1837.90125	-686.96344	-89.84291	1536.76294	-684.97162	268.41623	1545.26208	-586.10596	88.30952	1353.10156	-565.04584	-18.41203	1054.33643	-584.06641	231.20871	1067.09473	-773.40002	77.25378	1050.06653	-630.79944	-84.52037	871.15863	-563.84320	-11.03607	802.00043	-658.27563	-71.11600	757.85126	-689.35406	-44.52015	618.24286	-678.69116	64.88306	575.76227	-700.54834	-41.41077	568.66296	-650.92932	9.32071	518.62909	-747.75391	-51.45330	489.36890	-756.80670	-20.02841	206.50491	-649.09003	-68.69930	160.56729	-607.10443	-76.47020	156.68584	-548.91650	-30.40894	163.58823	-596.07227	25.12649	168.76474	-714.27686	68.75758	219.03154	-669.70831	53.11256	161.25514	-790.59760	39.77499	173.66690	-669.19739	272.90564	875.52301	-566.36578	207.14244	813.53857	-680.27203	260.98178	745.96851	-712.15057	243.36345	644.76959	-676.57898	138.83867	574.96082	-716.65607	241.38406	578.57361	-664.00867	201.32092	534.22858	-758.44928	252.25578	505.64044	-765.76019	227.25981	206.02654	-658.46027	297.76852	158.81317	-622.39386	306.31781	158.73929	-554.22345	256.47778	164.30536	-590.01672	218.88165	173.20251	-710.45392	152.69211	216.47736	-673.47406	172.71718	157.84897	-794.45654	178.57452	183.70963	-527.92157	304.15982	146.61957	-517.51758	-73.07898	143.18533	-875.90015	-78.71104	141.31381	-882.46271	296.19836	144.74968	
430	8.580	-756.05707	84.59653	1837.72363	-687.37177	-89.51956	1536.53027	-685.38763	268.72369	1545.05493	-586.21362	88.56421	1353.03638	-564.58356	-18.30748	1054.30774	-583.49603	231.28815	1066.97241	-772.86951	77.38893	1049.92859	-630.33942	-84.50716	871.14630	-563.41254	-10.99205	801.92877	-657.89630	-71.08279	757.84070	-688.99243	-44.44953	618.30200	-678.37024	64.99723	575.70947	-700.18018	-41.18070	568.55701	-650.64832	9.40940	518.53180	-747.55304	-51.36724	489.36957	-756.83887	-19.96489	206.54489	-649.08850	-68.69985	160.57870	-607.11475	-76.48824	156.69135	-548.90521	-30.43216	163.63400	-596.15234	25.19083	168.68600	-714.26733	68.77678	219.03813	-669.70917	53.11243	161.26874	-790.61603	39.83551	173.67264	-668.64331	273.00705	875.46344	-566.13885	207.01602	813.26050	-679.91644	261.06659	745.97321	-711.91559	243.36287	644.65222	-676.35370	138.91136	574.98615	-716.47595	241.33475	578.45612	-663.75415	201.26508	534.17181	-758.30365	252.28946	505.62390	-765.75104	227.21321	206.04813	-658.46088	297.77957	158.79459	-622.38788	306.32721	158.74562	-554.22437	256.47546	164.34497	-589.97430	218.90448	173.19437	-710.47913	152.66998	216.45059	-673.42993	172.62651	157.91833	-794.45251	178.54131	183.71928	-527.95233	304.23679	146.62100	-517.50366	-73.05686	143.18227	-875.90961	-78.71496	141.31409	-882.47107	296.19513	144.73692	
431	8.600	-756.59564	84.87207	1837.57227	-687.67255	-89.10670	1536.36719	-685.67169	269.08295	1544.86157	-586.22205	88.76195	1352.96887	-564.23755	-18.18835	1054.21094	-583.00952	231.31888	1066.88928	-772.41864	77.47089	1049.80798	-630.01135	-84.50600	871.11414	-563.05884	-10.98962	801.85498	-657.64471	-71.03408	757.84094	-688.74646	-44.46792	618.47467	-678.16010	65.12665	575.75354	-699.87122	-40.96623	568.43481	-650.45587	9.53355	518.45557	-747.38068	-51.29348	489.40027	-756.87775	-19.92685	206.60733	-649.09113	-68.71129	160.61021	-607.10065	-76.46318	156.74666	-548.90704	-30.43367	163.65446	-596.18542	25.25265	168.64198	-714.27997	68.78543	219.03586	-669.70679	53.11490	161.26128	-790.64777	39.92036	173.66228	-668.19470	273.07324	875.37042	-565.82379	206.89793	813.08722	-679.60168	261.16336	746.02063	-711.71729	243.37656	644.59229	-676.12079	139.00955	575.02307	-716.23340	241.28999	578.33405	-663.55200	201.18359	534.08453	-758.13879	252.25305	505.55966	-765.74030	227.18051	206.09677	-658.45691	297.79355	158.78075	-622.38562	306.32761	158.74908	-554.21826	256.45099	164.36763	-589.94086	218.88989	173.20160	-710.48022	152.66507	216.45009	-673.39172	172.57605	157.97450	-794.44873	178.51727	183.71100	-527.98584	304.33649	146.62395	-517.49829	-73.02824	143.16490	-875.92792	-78.70667	141.35744	-882.46094	296.17657	144.73199	
